<?xml version="1.0" standalone="yes"?>

<svg version="1.1" viewBox="0.0 0.0 522.8661417322835 491.36745406824144" fill="none" stroke="none" stroke-linecap="square" stroke-miterlimit="10" xmlns="http://www.w3.org/2000/svg" xmlns:xlink="http://www.w3.org/1999/xlink"><clipPath id="p.0"><path d="m0 0l522.86615 0l0 491.36746l-522.86615 0l0 -491.36746z" clip-rule="nonzero"></path></clipPath><g clip-path="url(#p.0)"><path fill="#ffffff" d="m0 0l522.86615 0l0 491.36746l-522.86615 0z" fill-rule="evenodd"></path><path fill="#000000" fill-opacity="0.0" d="m13.837271 245.18373l0 0c0 -127.529945 110.067444 -230.91339 245.84251 -230.91339l0 0c65.20151 0 127.73251 24.328304 173.83691 67.632965c46.10443 43.304665 72.005615 102.03839 72.005615 163.28043l0 0c0 127.52995 -110.067444 230.91338 -245.84253 230.91338l0 0c-135.77505 0 -245.84251 -103.38342 -245.84251 -230.91338z" fill-rule="evenodd"></path><path stroke="#000000" stroke-width="2.0" stroke-linejoin="round" stroke-linecap="butt" d="m13.837271 245.18373l0 0c0 -127.529945 110.067444 -230.91339 245.84251 -230.91339l0 0c65.20151 0 127.73251 24.328304 173.83691 67.632965c46.10443 43.304665 72.005615 102.03839 72.005615 163.28043l0 0c0 127.52995 -110.067444 230.91338 -245.84253 230.91338l0 0c-135.77505 0 -245.84251 -103.38342 -245.84251 -230.91338z" fill-rule="evenodd"></path><path fill="#000000" fill-opacity="0.0" d="m82.59318 269.46194l0 0c0 -105.82994 91.23521 -191.62204 203.77954 -191.62204l0 0c54.045685 0 105.87781 20.18869 144.09387 56.124794c38.216095 35.93611 59.68567 84.67592 59.68567 135.49725l0 0c0 105.829926 -91.23523 191.62204 -203.77954 191.62204l0 0c-112.54433 0 -203.77954 -85.792114 -203.77954 -191.62204z" fill-rule="evenodd"></path><path stroke="#000000" stroke-width="2.0" stroke-linejoin="round" stroke-linecap="butt" d="m82.59318 269.46194l0 0c0 -105.82994 91.23521 -191.62204 203.77954 -191.62204l0 0c54.045685 0 105.87781 20.18869 144.09387 56.124794c38.216095 35.93611 59.68567 84.67592 59.68567 135.49725l0 0c0 105.829926 -91.23523 191.62204 -203.77954 191.62204l0 0c-112.54433 0 -203.77954 -85.792114 -203.77954 -191.62204z" fill-rule="evenodd"></path><path fill="#000000" fill-opacity="0.0" d="m151.3517 286.70865l0 0c0 -88.13072 70.85887 -159.5748 158.26772 -159.5748l0 0c41.97522 0 82.23123 16.812294 111.91217 46.73838c29.68097 29.926071 46.35556 70.51454 46.35556 112.83641l0 0c0 88.13074 -70.85889 159.5748 -158.26773 159.5748l0 0c-87.408844 0 -158.26772 -71.44406 -158.26772 -159.5748z" fill-rule="evenodd"></path><path stroke="#000000" stroke-width="2.0" stroke-linejoin="round" stroke-linecap="butt" d="m151.3517 286.70865l0 0c0 -88.13072 70.85887 -159.5748 158.26772 -159.5748l0 0c41.97522 0 82.23123 16.812294 111.91217 46.73838c29.68097 29.926071 46.35556 70.51454 46.35556 112.83641l0 0c0 88.13074 -70.85889 159.5748 -158.26773 159.5748l0 0c-87.408844 0 -158.26772 -71.44406 -158.26772 -159.5748z" fill-rule="evenodd"></path><path fill="#000000" fill-opacity="0.0" d="m218.68767 307.09186l0 0c0 -65.39572 51.244003 -118.40944 114.45668 -118.40944l0 0c30.355804 0 59.468323 12.475235 80.933105 34.68132c21.464813 22.206085 33.52359 52.323975 33.52359 83.72812l0 0c0 65.39575 -51.243988 118.409454 -114.456696 118.409454l0 0c-63.212677 0 -114.45668 -53.013702 -114.45668 -118.409454z" fill-rule="evenodd"></path><path stroke="#000000" stroke-width="2.0" stroke-linejoin="round" stroke-linecap="butt" d="m218.68767 307.09186l0 0c0 -65.39572 51.244003 -118.40944 114.45668 -118.40944l0 0c30.355804 0 59.468323 12.475235 80.933105 34.68132c21.464813 22.206085 33.52359 52.323975 33.52359 83.72812l0 0c0 65.39575 -51.243988 118.409454 -114.456696 118.409454l0 0c-63.212677 0 -114.45668 -53.013702 -114.45668 -118.409454z" fill-rule="evenodd"></path><path fill="#000000" fill-opacity="0.0" d="m283.96326 331.13647l0 0c0 -39.22525 32.750183 -71.02362 73.1496 -71.02362l0 0c19.400482 0 38.00638 7.4828186 51.72458 20.802338c13.718231 13.319519 21.425049 31.384644 21.425049 50.221283l0 0c0 39.22528 -32.750214 71.02362 -73.14963 71.02362l0 0c-40.399414 0 -73.1496 -31.79834 -73.1496 -71.02362z" fill-rule="evenodd"></path><path stroke="#000000" stroke-width="2.0" stroke-linejoin="round" stroke-linecap="butt" d="m283.96326 331.13647l0 0c0 -39.22525 32.750183 -71.02362 73.1496 -71.02362l0 0c19.400482 0 38.00638 7.4828186 51.72458 20.802338c13.718231 13.319519 21.425049 31.384644 21.425049 50.221283l0 0c0 39.22528 -32.750214 71.02362 -73.14963 71.02362l0 0c-40.399414 0 -73.1496 -31.79834 -73.1496 -71.02362z" fill-rule="evenodd"></path><path fill="#000000" fill-opacity="0.0" d="m298.4357 271.7244l90.17322 0l0 57.763794l-90.17322 0z" fill-rule="evenodd"></path><path fill="#000000" d="m314.62387 305.4444l2.953125 -0.25q0.328125 2.15625 1.515625 3.25q1.203125 1.078125 2.890625 1.078125q2.03125 0 3.4375 -1.53125q1.40625 -1.53125 1.40625 -4.0625q0 -2.40625 -1.359375 -3.796875q-1.34375 -1.390625 -3.53125 -1.390625q-1.359375 0 -2.453125 0.625q-1.09375 0.609375 -1.71875 1.59375l-2.640625 -0.34375l2.21875 -11.765625l11.390625 0l0 2.6875l-9.140625 0l-1.234375 6.15625q2.0625 -1.4375 4.328125 -1.4375q3.0 0 5.0625 2.078125q2.0625 2.078125 2.0625 5.34375q0 3.109375 -1.8125 5.375q-2.203125 2.78125 -6.015625 2.78125q-3.125 0 -5.109375 -1.75q-1.96875 -1.75 -2.25 -4.640625zm18.90625 6.0l0 -22.90625l3.109375 0l12.03125 17.984375l0 -17.984375l2.90625 0l0 22.90625l-3.109375 0l-12.03125 -18.0l0 18.0l-2.90625 0zm23.296875 0l0 -22.90625l15.453125 0l0 2.703125l-12.421875 0l0 7.09375l10.75 0l0 2.703125l-10.75 0l0 10.40625l-3.03125 0z" fill-rule="nonzero"></path><path fill="#000000" fill-opacity="0.0" d="m181.6798 160.16536l116.755905 0l0 57.76378l-116.755905 0z" fill-rule="evenodd"></path><path fill="#000000" d="m198.8468 199.88536l0 -22.90625l8.59375 0q2.625 0 4.203125 0.703125q1.59375 0.6875 2.484375 2.140625q0.90625 1.4375 0.90625 3.015625q0 1.46875 -0.796875 2.765625q-0.796875 1.296875 -2.40625 2.09375q2.078125 0.609375 3.1875 2.078125q1.125 1.46875 1.125 3.46875q0 1.609375 -0.6875 3.0q-0.671875 1.375 -1.671875 2.125q-1.0 0.75 -2.515625 1.140625q-1.5 0.375 -3.6875 0.375l-8.734375 0zm3.03125 -13.28125l4.953125 0q2.015625 0 2.890625 -0.265625q1.15625 -0.34375 1.734375 -1.140625q0.59375 -0.796875 0.59375 -2.0q0 -1.140625 -0.546875 -2.0q-0.546875 -0.875 -1.5625 -1.1875q-1.015625 -0.328125 -3.484375 -0.328125l-4.578125 0l0 6.921875zm0 10.578125l5.703125 0q1.46875 0 2.0625 -0.109375q1.046875 -0.1875 1.75 -0.625q0.703125 -0.4375 1.15625 -1.265625q0.453125 -0.84375 0.453125 -1.9375q0 -1.28125 -0.65625 -2.21875q-0.65625 -0.953125 -1.828125 -1.328125q-1.15625 -0.390625 -3.34375 -0.390625l-5.296875 0l0 7.875zm34.78125 -5.328125l3.03125 0.765625q-0.953125 3.734375 -3.4375 5.703125q-2.46875 1.953125 -6.046875 1.953125q-3.703125 0 -6.03125 -1.5q-2.3125 -1.515625 -3.53125 -4.375q-1.203125 -2.859375 -1.203125 -6.140625q0 -3.578125 1.359375 -6.234375q1.375 -2.671875 3.890625 -4.046875q2.53125 -1.390625 5.5625 -1.390625q3.4375 0 5.78125 1.75q2.34375 1.75 3.265625 4.921875l-2.984375 0.703125q-0.796875 -2.5 -2.3125 -3.640625q-1.515625 -1.140625 -3.8125 -1.140625q-2.640625 0 -4.421875 1.265625q-1.765625 1.265625 -2.484375 3.40625q-0.71875 2.125 -0.71875 4.390625q0 2.921875 0.84375 5.109375q0.859375 2.171875 2.65625 3.25q1.796875 1.078125 3.890625 1.078125q2.546875 0 4.3125 -1.46875q1.765625 -1.46875 2.390625 -4.359375zm6.734375 8.03125l0 -22.90625l3.109375 0l12.03125 17.984375l0 -17.984375l2.90625 0l0 22.90625l-3.109375 0l-12.03125 -18.0l0 18.0l-2.90625 0zm23.296875 0l0 -22.90625l15.453125 0l0 2.703125l-12.421875 0l0 7.09375l10.75 0l0 2.703125l-10.75 0l0 10.40625l-3.03125 0z" fill-rule="nonzero"></path><path fill="#000000" fill-opacity="0.0" d="m248.93176 225.71129l90.17322 0l0 57.76378l-90.17322 0z" fill-rule="evenodd"></path><path fill="#000000" d="m274.13556 265.43127l0 -5.484375l-9.9375 0l0 -2.578125l10.453125 -14.843735l2.296875 0l0 14.843735l3.09375 0l0 2.578125l-3.09375 0l0 5.484375l-2.8125 0zm0 -8.0625l0 -10.32811l-7.171875 10.32811l7.171875 0zm9.890625 8.0625l0 -22.906235l3.109375 0l12.03125 17.98436l0 -17.98436l2.90625 0l0 22.906235l-3.109375 0l-12.03125 -17.999985l0 17.999985l-2.90625 0zm23.296875 0l0 -22.906235l15.453125 0l0 2.703125l-12.421875 0l0 7.09375l10.75 0l0 2.703125l-10.75 0l0 10.406235l-3.03125 0z" fill-rule="nonzero"></path><path fill="#d9d9d9" d="m328.50656 354.16797l0 0c0 -20.06488 18.712372 -36.33069 41.795288 -36.33069l0 0c23.082886 0 41.795258 16.265808 41.795258 36.33069l0 0c0 20.06491 -18.712372 36.33072 -41.795258 36.33072l0 0c-23.082916 0 -41.795288 -16.265808 -41.795288 -36.33072z" fill-rule="evenodd"></path><path stroke="#000000" stroke-width="2.0" stroke-linejoin="round" stroke-linecap="butt" d="m328.50656 354.16797l0 0c0 -20.06488 18.712372 -36.33069 41.795288 -36.33069l0 0c23.082886 0 41.795258 16.265808 41.795258 36.33069l0 0c0 20.06491 -18.712372 36.33072 -41.795258 36.33072l0 0c-23.082916 0 -41.795288 -16.265808 -41.795288 -36.33072z" fill-rule="evenodd"></path><path fill="#000000" fill-opacity="0.0" d="m128.51443 127.13386l90.17323 0l0 57.763786l-90.17323 0z" fill-rule="evenodd"></path><path fill="#000000" d="m144.71825 160.80699l2.8125 -0.375q0.484375 2.390625 1.640625 3.453125q1.171875 1.046875 2.84375 1.046875q1.984375 0 3.34375 -1.375q1.375 -1.375 1.375 -3.40625q0 -1.9375 -1.265625 -3.1875q-1.265625 -1.265625 -3.21875 -1.265625q-0.796875 0 -1.984375 0.3125l0.3125 -2.46875q0.28125 0.03125 0.453125 0.03125q1.796875 0 3.234375 -0.9375q1.4375 -0.9375 1.4375 -2.890625q0 -1.546875 -1.046875 -2.5625q-1.046875 -1.015625 -2.703125 -1.015625q-1.640625 0 -2.734375 1.03125q-1.09375 1.03125 -1.40625 3.09375l-2.8125 -0.5q0.515625 -2.828125 2.34375 -4.375q1.828125 -1.5625 4.546875 -1.5625q1.875 0 3.453125 0.8125q1.578125 0.796875 2.40625 2.1875q0.84375 1.390625 0.84375 2.953125q0 1.484375 -0.796875 2.703125q-0.796875 1.21875 -2.359375 1.9375q2.03125 0.46875 3.15625 1.953125q1.125 1.46875 1.125 3.6875q0 3.0 -2.1875 5.09375q-2.1875 2.078125 -5.53125 2.078125q-3.015625 0 -5.015625 -1.796875q-1.984375 -1.796875 -2.265625 -4.65625zm18.890625 6.046875l0 -22.90625l3.109375 0l12.03125 17.984375l0 -17.984375l2.90625 0l0 22.90625l-3.109375 0l-12.03125 -18.0l0 18.0l-2.90625 0zm23.296875 0l0 -22.90625l15.453125 0l0 2.703125l-12.421875 0l0 7.09375l10.75 0l0 2.703125l-10.75 0l0 10.40625l-3.03125 0z" fill-rule="nonzero"></path><path fill="#000000" fill-opacity="0.0" d="m82.59318 73.58268l90.173225 0l0 57.76377l-90.173225 0z" fill-rule="evenodd"></path><path fill="#000000" d="m113.56261 110.599556l0 2.703125l-15.140625 0q-0.03125 -1.015625 0.328125 -1.953125q0.578125 -1.546875 1.84375 -3.046875q1.28125 -1.5 3.6875 -3.46875q3.734375 -3.0625 5.046875 -4.84375q1.3125 -1.796875 1.3125 -3.390625q0 -1.671875 -1.203125 -2.8125q-1.1875 -1.15625 -3.109375 -1.15625q-2.03125 0 -3.25 1.21875q-1.21875 1.21875 -1.234375 3.375l-2.890625 -0.296875q0.296875 -3.234375 2.234375 -4.921875q1.9375 -1.703125 5.203125 -1.703125q3.296875 0 5.21875 1.828125q1.921875 1.828125 1.921875 4.53125q0 1.375 -0.5625 2.703125q-0.5625 1.328125 -1.875 2.796875q-1.296875 1.46875 -4.328125 4.03125q-2.53125 2.125 -3.25 2.890625q-0.71875 0.75 -1.1875 1.515625l11.234375 0zm4.125 2.703125l0 -22.90625l3.109375 0l12.03125 17.984375l0 -17.984375l2.90625 0l0 22.90625l-3.109375 0l-12.03125 -18.0l0 18.0l-2.90625 0zm23.296875 0l0 -22.90625l15.453125 0l0 2.703125l-12.421875 0l0 7.09375l10.75 0l0 2.703125l-10.75 0l0 10.40625l-3.03125 0z" fill-rule="nonzero"></path><path fill="#000000" fill-opacity="0.0" d="m18.47244 29.304462l90.173225 0l0 57.763783l-90.173225 0z" fill-rule="evenodd"></path><path fill="#000000" d="m45.25437 69.02446l-2.8125 0l0 -17.921871q-1.015625 0.96875 -2.671875 1.9375q-1.640625 0.96875 -2.953125 1.453125l0 -2.71875q2.359375 -1.109375 4.125 -2.6875q1.765625 -1.578125 2.5 -3.0625l1.8125 0l0 22.999996zm8.3125 0l0 -22.906246l3.109375 0l12.03125 17.984371l0 -17.984371l2.90625 0l0 22.906246l-3.109375 0l-12.03125 -17.999996l0 17.999996l-2.90625 0zm23.296875 0l0 -22.906246l15.453125 0l0 2.703125l-12.421875 0l0 7.09375l10.75 0l0 2.703125l-10.75 0l0 10.406246l-3.03125 0z" fill-rule="nonzero"></path></g></svg>

