<svg id="startbox" version="1.1" width="271" height="271" xmlns="http://www.w3.org/2000/svg" xmlns:xlink="http://www.w3.org/1999/xlink">

  <defs>
    <pattern id="smallGrid" width="9" height="9" patternUnits="userSpaceOnUse">
      <path d="M 9 0 L 0 0 0 9" fill="none" stroke="#ddd" stroke-width="0.5"/>
    </pattern>
      <pattern id="grid" width="90" height="90" patternUnits="userSpaceOnUse">
      <rect width="90" height="90" fill="url(#smallGrid)"/>
      <path d="M 90 0 L 0 0 0 90" fill="none" stroke="#ddd" stroke-width="1"/>
    </pattern>
  </defs>

  <rect width="100%" height="100%" fill="url(#grid)" />

  <g r="4" style="fill: black">
    <circle cx="56"  cy="21"  r="4" style="fill: black"/>
    <circle cx="146" cy="20"  r="4" style="fill: black" />
    <circle cx="237" cy="21"  r="4" style="fill: black" />
    <circle cx="21"  cy="36"  r="4" style="fill: black"/>
    <circle cx="122" cy="41"  r="4" style="fill: black" />
    <circle cx="202" cy="36"  r="4" style="fill: black" />
    <circle cx="61"  cy="61"  r="4" style="fill: black" />
    <circle cx="201" cy="59"  r="4" style="fill: black" />
    <circle cx="242" cy="61"  r="4" style="fill: black" />
    <circle cx="136" cy="71"  r="4" style="fill: black" />
    <circle cx="21"  cy="86"  r="4" style="fill: black" />
    <circle cx="226" cy="88"  r="4" style="fill: black" />
    <circle cx="176" cy="101" r="4" style="fill: black" />
    <circle cx="257" cy="107" r="4" style="fill: black" />
    <circle cx="31"  cy="106" r="4" style="fill: black" />
    <circle cx="131" cy="116" r="4" style="fill: black" />
    <circle cx="216" cy="138" r="4" style="fill: black" />
    <circle cx="76"  cy="146" r="4" style="fill: black" />
    <circle cx="181" cy="151" r="4" style="fill: black" />
    <circle cx="16"  cy="166" r="4" style="fill: black" />
    <circle cx="172" cy="171" r="4" style="fill: black" />
    <circle cx="91"  cy="176" r="4" style="fill: black" />
    <circle cx="236" cy="186" r="4" style="fill: black" />
    <circle cx="57"  cy="208" r="4" style="fill: black" />
    <circle cx="161" cy="213" r="4" style="fill: black" />
    <circle cx="211" cy="211" r="4" style="fill: black" />
    <circle cx="26"  cy="233" r="4" style="fill: black" />
    <circle cx="67"  cy="233" r="4" style="fill: black" />
    <circle cx="97"  cy="234" r="4" style="fill: black" />
    <circle cx="161" cy="236" r="4" style="fill: black" />
    <circle cx="176" cy="250" r="4" style="fill: black" />
    <circle cx="202" cy="238" r="4" style="fill: black" />
  </g>
  <g id="auto">
    <circle cx="99"  cy="54" r="4" style="fill: black" />
    <circle cx="154" cy="51" r="4" style="fill: black" />
    <circle cx="194" cy="86" r="4" style="fill: black" />
    <circle cx="201" cy="121" r="4" style="fill: black" />
    <circle cx="184" cy="171" r="4" style="fill: black" />
    <circle cx="154" cy="191" r="4" style="fill: black" />
    <circle cx="124" cy="196" r="4" style="fill: black" />
    <circle cx="94"  cy="188" r="4" style="fill: black" />
    <circle cx="64"  cy="161" r="4" style="fill: black" />
    <circle cx="52"  cy="126" r="4" style="fill: black" />
    <circle cx="69"  cy="76" r="4" style="fill: black" />

    <animateMotion path="
      M 3.5, 3.5
      m -5, 0
      a 5,5 0 1,0 10,0
      a 5,5 0 1,0 -10,0"
      dur=".8s" repeatCount="4" begin="startbox.click;startbox.touchstart"/>
  </g>

</svg>
